<svg width="1440" height="1638" viewBox="0 0 1440 1638" fill="none" xmlns="http://www.w3.org/2000/svg">
<g clip-path="url(#clip0_19_162)">
<rect width="1440" height="1638" fill="#5446EB"/>
<path d="M11.4627 240.819C13.0284 232.571 16.3257 230.103 24.2952 224.801C17.4191 217.464 15.6413 218.229 14.122 207.927C11.7283 218.117 9.36064 217.5 1.41031 222.45C9.52153 231.809 10.2958 229.702 11.4627 240.819Z" stroke="#8B83EB"/>
<path d="M477.463 45.8194C479.028 37.5711 482.326 35.1032 490.295 29.8014C483.419 22.4639 481.641 23.2293 480.122 12.9267C477.728 23.1166 475.361 22.4998 467.41 27.4496C475.522 36.8092 476.296 34.7019 477.463 45.8194Z" stroke="#8B83EB"/>
<path d="M1074.46 586.819C1076.03 578.571 1079.33 576.103 1087.3 570.801C1080.42 563.464 1078.64 564.229 1077.12 553.927C1074.73 564.117 1072.36 563.5 1064.41 568.45C1072.52 577.809 1073.3 575.702 1074.46 586.819Z" stroke="#8B83EB"/>
<path d="M336.463 483.819C338.028 475.571 341.326 473.103 349.295 467.801C342.419 460.464 340.641 461.229 339.122 450.927C336.728 461.117 334.361 460.5 326.41 465.45C334.522 474.809 335.296 472.702 336.463 483.819Z" stroke="#8B83EB"/>
<path d="M238.463 137.819C240.028 129.571 243.326 127.103 251.295 121.801C244.419 114.464 242.641 115.229 241.122 104.927C238.728 115.117 236.361 114.5 228.41 119.45C236.522 128.809 237.296 126.702 238.463 137.819Z" stroke="#8B83EB"/>
<path d="M225.463 947.819C227.028 939.571 230.326 937.103 238.295 931.801C231.419 924.464 229.641 925.229 228.122 914.927C225.728 925.117 223.361 924.5 215.41 929.45C223.522 938.809 224.296 936.702 225.463 947.819Z" stroke="#8B83EB"/>
<path d="M448.463 1233.82C450.028 1225.57 453.326 1223.1 461.295 1217.8C454.419 1210.46 452.641 1211.23 451.122 1200.93C448.728 1211.12 446.361 1210.5 438.41 1215.45C446.522 1224.81 447.296 1222.7 448.463 1233.82Z" stroke="#8B83EB"/>
<path d="M744.463 1376.82C746.028 1368.57 749.326 1366.1 757.295 1360.8C750.419 1353.46 748.641 1354.23 747.122 1343.93C744.728 1354.12 742.361 1353.5 734.41 1358.45C742.522 1367.81 743.296 1365.7 744.463 1376.82Z" stroke="#8B83EB"/>
<path d="M1017.46 1150.82C1019.03 1142.57 1022.33 1140.1 1030.3 1134.8C1023.42 1127.46 1021.64 1128.23 1020.12 1117.93C1017.73 1128.12 1015.36 1127.5 1007.41 1132.45C1015.52 1141.81 1016.3 1139.7 1017.46 1150.82Z" stroke="#8B83EB"/>
<path d="M618.463 1601.82C620.028 1593.57 623.326 1591.1 631.295 1585.8C624.419 1578.46 622.641 1579.23 621.122 1568.93C618.728 1579.12 616.361 1578.5 608.41 1583.45C616.522 1592.81 617.296 1590.7 618.463 1601.82Z" stroke="#8B83EB"/>
<path d="M225.463 1619.82C227.028 1611.57 230.326 1609.1 238.295 1603.8C231.419 1596.46 229.641 1597.23 228.122 1586.93C225.728 1597.12 223.361 1596.5 215.41 1601.45C223.522 1610.81 224.296 1608.7 225.463 1619.82Z" stroke="#8B83EB"/>
<path d="M1235.46 102.819C1237.03 94.5711 1240.33 92.1032 1248.3 86.8014C1241.42 79.4639 1239.64 80.2293 1238.12 69.9267C1235.73 80.1166 1233.36 79.4998 1225.41 84.4496C1233.52 93.8092 1234.3 91.7019 1235.46 102.819Z" stroke="#8B83EB"/>
<path d="M1385.46 42.8194C1387.03 34.5711 1390.33 32.1032 1398.3 26.8014C1391.42 19.4639 1389.64 20.2293 1388.12 9.9267C1385.73 20.1166 1383.36 19.4998 1375.41 24.4496C1383.52 33.8092 1384.3 31.7019 1385.46 42.8194Z" stroke="#8B83EB"/>
<path d="M971.463 912.819C973.028 904.571 976.326 902.103 984.295 896.801C977.419 889.464 975.641 890.229 974.122 879.927C971.728 890.117 969.361 889.5 961.41 894.45C969.522 903.809 970.296 901.702 971.463 912.819Z" stroke="#8B83EB"/>
<path d="M1351.46 1287.82C1353.03 1279.57 1356.33 1277.1 1364.3 1271.8C1357.42 1264.46 1355.64 1265.23 1354.12 1254.93C1351.73 1265.12 1349.36 1264.5 1341.41 1269.45C1349.52 1278.81 1350.3 1276.7 1351.46 1287.82Z" stroke="#8B83EB"/>
<path d="M71.4627 1374.82C73.0284 1366.57 76.3257 1364.1 84.2952 1358.8C77.4191 1351.46 75.6413 1352.23 74.122 1341.93C71.7283 1352.12 69.3606 1351.5 61.4103 1356.45C69.5215 1365.81 70.2958 1363.7 71.4627 1374.82Z" stroke="#8B83EB"/>
<path d="M1084.46 1613.82C1086.03 1605.57 1089.33 1603.1 1097.3 1597.8C1090.42 1590.46 1088.64 1591.23 1087.12 1580.93C1084.73 1591.12 1082.36 1590.5 1074.41 1595.45C1082.52 1604.81 1083.3 1602.7 1084.46 1613.82Z" stroke="#8B83EB"/>
<path d="M146.463 843.819C148.028 835.571 151.326 833.103 159.295 827.801C152.419 820.464 150.641 821.229 149.122 810.927C146.728 821.117 144.361 820.5 136.41 825.45C144.522 834.809 145.296 832.702 146.463 843.819Z" stroke="#8B83EB"/>
<path d="M1244.91 927.948C1248.48 920.645 1256.97 908.023 1262.41 915.955C1267.85 923.887 1261.98 933.678 1258.37 937.582C1260.86 940.59 1267.59 945.406 1274.59 940.609C1281.59 935.812 1288.16 937.885 1290.56 939.521M1245.99 973.927L1317.56 972.025L1348.19 914.164L1283.2 916.276L1245.99 973.927Z" stroke="#8A82E9"/>
<path d="M1279.35 975.067C1279.75 978.363 1281.09 984.851 1283.2 984.432C1285.31 984.012 1304.9 976.274 1314.43 972.458" stroke="#8A82E9"/>
<path d="M1244.91 1599.95C1248.48 1592.65 1256.97 1580.02 1262.41 1587.96C1267.85 1595.89 1261.98 1605.68 1258.37 1609.58C1260.86 1612.59 1267.59 1617.41 1274.59 1612.61C1281.59 1607.81 1288.16 1609.88 1290.56 1611.52M1245.99 1645.93L1317.56 1644.03L1348.19 1586.16L1283.2 1588.28L1245.99 1645.93Z" stroke="#8A82E9"/>
<path d="M1279.35 1647.07C1279.75 1650.36 1281.09 1656.85 1283.2 1656.43C1285.31 1656.01 1304.9 1648.27 1314.43 1644.46" stroke="#8A82E9"/>
<path d="M1380.12 206.023C1385.62 199.189 1398.52 187.223 1406.12 194.023C1415.62 202.523 1419.62 211.523 1440.12 206.023" stroke="#8B83EB" stroke-width="2"/>
<path d="M1381.12 205C1376.96 206.333 1372.32 211 1387.12 219C1401.92 227 1409.62 220 1411.62 215.5C1416.12 217.667 1426.52 221.7 1432.12 220.5" stroke="#8B83EB" stroke-width="2"/>
<path d="M1381.62 215C1385.46 215.833 1393.82 216.5 1396.62 212.5" stroke="#8B83EB" stroke-width="2"/>
<ellipse cx="1393.12" cy="203.5" rx="1" ry="2.5" fill="#8B83EB"/>
<path d="M1380.12 878.023C1385.62 871.189 1398.52 859.223 1406.12 866.023C1415.62 874.523 1419.62 883.523 1440.12 878.023" stroke="#8B83EB" stroke-width="2"/>
<path d="M1381.12 877C1376.96 878.333 1372.32 883 1387.12 891C1401.92 899 1409.62 892 1411.62 887.5C1416.12 889.667 1426.52 893.7 1432.12 892.5" stroke="#8B83EB" stroke-width="2"/>
<path d="M1381.62 887C1385.46 887.833 1393.82 888.5 1396.62 884.5" stroke="#8B83EB" stroke-width="2"/>
<ellipse cx="1393.12" cy="875.5" rx="1" ry="2.5" fill="#8B83EB"/>
<path d="M0 293.167C4 287.834 13.8 277.567 21 279.167C30 281.167 34.5 292.667 44 299.667C51.6 305.267 61.8333 302.001 66 299.667L84.5 288.667L62.5 314.167" stroke="#8B83EB" stroke-width="2"/>
<path d="M62.3214 300.427L63.7431 310.118L71.1373 298.107L76.7412 297.497" stroke="#8B83EB" stroke-width="2"/>
<path d="M3 313.69C8.5 306.857 21.4 294.89 29 301.69C38.5 310.19 42.5 319.19 63 313.69" stroke="#8B83EB" stroke-width="2"/>
<path d="M0 965.167C4 959.834 13.8 949.567 21 951.167C30 953.167 34.5 964.667 44 971.667C51.6 977.267 61.8333 974.001 66 971.667L84.5 960.667L62.5 986.167" stroke="#8B83EB" stroke-width="2"/>
<path d="M62.3214 972.427L63.7431 982.118L71.1373 970.107L76.7412 969.497" stroke="#8B83EB" stroke-width="2"/>
<path d="M3 985.69C8.5 978.857 21.4 966.89 29 973.69C38.5 982.19 42.5 991.19 63 985.69" stroke="#8B83EB" stroke-width="2"/>
</g>
<defs>
<clipPath id="clip0_19_162">
<rect width="1440" height="1638" fill="white"/>
</clipPath>
</defs>
</svg>
